<svg width="64" height="64" viewBox="0 0 64 64" fill="none" xmlns="http://www.w3.org/2000/svg">
  <defs>
    <linearGradient id="gradient1" x1="0%" y1="0%" x2="100%" y2="100%">
      <stop offset="0%" style="stop-color:#6366f1;stop-opacity:1" />
      <stop offset="50%" style="stop-color:#8b5cf6;stop-opacity:1" />
      <stop offset="100%" style="stop-color:#ec4899;stop-opacity:1" />
    </linearGradient>
    <linearGradient id="gradient2" x1="0%" y1="0%" x2="100%" y2="100%">
      <stop offset="0%" style="stop-color:#06b6d4;stop-opacity:1" />
      <stop offset="100%" style="stop-color:#3b82f6;stop-opacity:1" />
    </linearGradient>
    <filter id="glow">
      <feGaussianBlur stdDeviation="3" result="coloredBlur"/>
      <feMerge> 
        <feMergeNode in="coloredBlur"/>
        <feMergeNode in="SourceGraphic"/>
      </feMerge>
    </filter>
  </defs>
  
  <!-- Background circle with gradient -->
  <circle cx="32" cy="32" r="30" fill="url(#gradient1)" opacity="0.1"/>
  
  <!-- Main M letter with modern design -->
  <path d="M16 20 L16 44 L20 44 L20 28 L28 40 L36 40 L44 28 L44 44 L48 44 L48 20 L42 20 L32 34 L22 20 L16 20 Z" 
        fill="url(#gradient1)" 
        filter="url(#glow)"/>
  
  <!-- Decorative elements -->
  <circle cx="12" cy="16" r="2" fill="url(#gradient2)" opacity="0.8"/>
  <circle cx="52" cy="16" r="2" fill="url(#gradient2)" opacity="0.8"/>
  <circle cx="12" cy="48" r="2" fill="url(#gradient2)" opacity="0.8"/>
  <circle cx="52" cy="48" r="2" fill="url(#gradient2)" opacity="0.8"/>
  
  <!-- Subtle accent lines -->
  <line x1="8" y1="32" x2="56" y2="32" stroke="url(#gradient2)" stroke-width="1" opacity="0.3"/>
  <line x1="32" y1="8" x2="32" y2="56" stroke="url(#gradient2)" stroke-width="1" opacity="0.3"/>
</svg>